<svg height="484pt" viewBox="-42 0 484 484" width="484pt" xmlns="http://www.w3.org/2000/svg"><path d="m291.933594 192.539062v90.710938c.003906 8.230469-.714844 16.445312-2.140625 24.550781-11.679688 66.179688-69.660157 116.898438-138.832031 116.898438-77.878907-.382813-140.84375-63.566407-140.957032-141.449219v-147.148438h281.929688zm0 0" fill="#00efd1"/><g fill="#083863"><path d="m277.0625 464h-252.199219c-5.523437 0-10 4.476562-10 10s4.476563 10 10 10h252.199219c5.523438 0 10-4.476562 10-10s-4.476562-10-10-10zm0 0"/><path d="m67.773438 97.21875c5.519531 0 10-4.476562 10-10v-38.328125c0-5.523437-4.480469-10-10-10-5.523438 0-10 4.476563-10 10v38.328125c0 5.523438 4.476562 10 10 10zm0 0"/><path d="m150.960938 92.351562c5.523437 0 10-4.480468 10-10v-72.351562c0-5.523438-4.476563-10-10-10-5.523438 0-10 4.476562-10 10v72.351562c0 5.519532 4.476562 10 10 10zm0 0"/><path d="m239.011719 92.351562c5.523437 0 10-4.480468 10-10v-33.460937c0-5.523437-4.476563-10-10-10-5.523438 0-10 4.476563-10 10v33.460937c0 5.519532 4.476562 10 10 10zm0 0"/><path d="m332.722656 182.539062h-30.789062v-46.4375c0-5.523437-4.480469-10-10-10h-281.929688c-5.523437 0-9.99999975 4.476563-9.99999975 10v147.148438c-.30859425 58.910156 33.74609375 112.597656 87.17187475 137.421875s116.417969 16.230469 161.246094-21.992187c24.65625-20.984376 41.984375-49.28125 49.480469-80.78125h34.816406c37.273438-.140626 67.417969-30.402344 67.417969-67.679688 0-37.273438-30.144531-67.535156-67.417969-67.679688zm-50.789062 100.710938c0 7.648438-.664063 15.277344-1.988282 22.808594-5.40625 30.179687-21.136718 57.539062-44.492187 77.394531-38.972656 32.863281-93.472656 40.132813-139.695313 18.636719-46.222656-21.5-75.777343-67.859375-75.753906-118.839844v-137.148438h261.929688zm84.5.691406c-8.921875 8.972656-21.0625 13.996094-33.710938 13.957032h-31.5c.46875-4.859376.714844-9.753907.714844-14.648438v-80.710938h30.789062c19.285157.003907 36.671876 11.621094 44.050782 29.4375 7.378906 17.816407 3.300781 38.324219-10.335938 51.964844zm0 0"/></g></svg>