<svg height="511pt" viewBox="0 -15 511.99987 511" width="511pt" xmlns="http://www.w3.org/2000/svg"><path d="m376.855469 269.640625h-4.601563c-2.503906 0-4.980468-.109375-7.433594-.308594-9.710937 14.457031-27.566406 21.3125-43.929687 15.574219-19.648437-6.898438-29.6875-29.351562-22.425781-50.140625.273437-.773437.570312-1.53125.878906-2.28125-5.183594-7.078125-9.371094-14.941406-12.371094-23.375-3.097656.566406-101.335937 26.796875-125.292968 33.195313l50.675781 106.171874c.859375.425782 18.683593 9.273438 18.75 9.308594 14.414062 7.535156 24.84375 14.96875 28.761719 27.722656l24.082031-6.46875v-9.96875h46.890625v-3.714843c12.648437-5.683594 23.320312-14.355469 31.382812-24.929688l12.320313 20.5 40.527343-23.789062c-14.628906-25.800781-29.414062-51.894531-38.214843-67.496094zm0 0" fill="#a2f9f9"/><path d="m458.796875 414.238281-43.726563-77.101562-40.527343 23.792969 42.523437 70.769531c.617188 8.648437 7.3125 15.476562 16.09375 15.476562h22c9.1875 0 16.632813-7.464843 16.632813-16.675781 0-7.957031-5.5625-14.601562-12.996094-16.261719zm0 0" fill="#ffd5b3"/><path d="m439.273438 431.699219-48.316407-80.40625-16.414062 9.636719 42.523437 70.769531c.617188 8.648437 7.3125 15.476562 16.09375 15.476562h22c.035156 0 .066406-.003906.101563-.003906-8.726563-.054687-15.375-6.859375-15.988281-15.472656zm0 0" fill="#e5bfa1"/><path d="m231.105469 357.785156c-.066407-.035156-17.890625-8.878906-18.753907-9.304687l-50.675781-106.179688-5.234375 1.40625c-43.582031 11.707031-69.445312 56.617188-57.765625 100.3125 2.898438 10.851563 7.847657 20.605469 14.308594 28.964844h-25.011719v46.378906h9.40625l4.441406-7.710937c4.707032-8.175782 13.714844-10.855469 22.683594-10.855469h25.210938v46.378906h62.636718c27.1875 0 49.222657-22.09375 49.222657-49.347656 0-20.855469-11.949219-30.359375-30.46875-40.042969zm0 0" fill="#89c947"/><path d="m98.675781 344.019531c3.179688 11.898438 8.828125 22.464844 16.226563 31.324219-1.765625-3.945312-3.25-8.078125-4.40625-12.390625-11.675782-43.695313 14.1875-88.605469 57.765625-100.316406l2.769531-.742188-9.355469-19.597656-5.234375 1.40625c-43.582031 11.710937-69.445312 56.621094-57.765625 100.316406zm0 0" fill="#7bb540"/><path d="m87.972656 372.984375h-28.921875c-8.972656 0-17.980469 2.679687-22.6875 10.855469l-17.71875 30.765625c-5.976562 10.386719-2.429687 23.660156 7.925781 29.65625 10.359376 5.996093 23.601563 2.4375 29.582032-7.945313l9.761718-16.953125h22.058594zm0 0" fill="#ffd5b3"/><path d="m41.828125 444.261719c-10.355469-5.996094-13.902344-19.269531-7.925781-29.65625l17.71875-30.765625c4.707031-8.175782 13.714844-10.859375 22.6875-10.859375h-15.257813c-8.972656 0-17.980469 2.683593-22.6875 10.859375l-17.71875 30.765625c-5.976562 10.386719-2.429687 23.660156 7.925781 29.65625 5.851563 3.386719 12.621094 3.722656 18.484376 1.503906-1.097657-.414063-2.179688-.894531-3.226563-1.503906zm0 0" fill="#e5bfa1"/><path d="m286.972656 209.101562c-3.53125.644532-7.113281 1.453126-10.742187 2.425782l-114.554688 30.773437 9.355469 19.597657 117.023438-31.4375c2.867187-.769532 5.707031-1.4375 8.515624-2.003907-3.917968-5.996093-7.15625-12.484375-9.597656-19.355469zm0 0" fill="#91e0e0"/><path d="m489.519531 123.542969c0-9.574219-1.464843-18.632813-4.179687-27.023438-8.324219-3.113281-17.054688-8.5625-21.273438-11.355469 3.613282 2.898438 8.820313 9.132813.359375 16.886719-10.789062 9.878907-48.722656-15.59375-55.066406-19.976562 3.515625 2.585937 15.335937 12.75.074219 22.917969-17.675782 11.777343-73.652344-23.554688-73.652344-23.554688 0 43.183594-54.007812 58.726562-54.007812 58.726562-.03125-.023437-.0625-.046874-.09375-.070312v.070312h-8.191407c-11.773437 0-21.402343 9.707032-21.402343 21.574219v18.035157c0 11.867187 9.628906 21.578124 21.402343 21.578124h11.097657c2.9375 11.398438 8.015624 21.925782 14.757812 31.136719-.3125.746094-.609375 1.503907-.878906 2.28125-7.261719 20.789063 2.777344 43.238281 22.425781 50.136719 16.359375 5.742188 34.21875-1.113281 43.929687-15.574219 2.453126.203125 4.929688.3125 7.433594.3125h44.507813c59.917969 0 93.203125-43.023437 72.753906-98.808593v-47.292969zm0 0" fill="#ffd5b3"/><path d="m402.773438 229.214844c-16.890626 0-30.632813-13.777344-30.632813-30.710938 0-3.257812 2.636719-5.894531 5.882813-5.894531h49.5c3.246093 0 5.878906 2.636719 5.878906 5.894531 0 16.933594-13.738282 30.710938-30.628906 30.710938zm0 0" fill="#fb8276"/><path d="m396 198.503906c0-3.257812 2.632812-5.894531 5.882812-5.894531h-23.859374c-3.246094 0-5.878907 2.636719-5.878907 5.894531 0 16.933594 13.738281 30.710938 30.628907 30.710938 4.230468 0 8.261718-.867188 11.929687-2.425782-10.980469-4.671874-18.703125-15.589843-18.703125-28.285156zm0 0" fill="#e1756a"/><path d="m283.949219 430.5v1.1875l.058593.011719c.617188 8.648437 7.789063 15.476562 16.574219 15.476562h31.714844c9.183594 0 16.09375-7.464843 16.09375-16.675781s-6.910156-16.675781-16.09375-16.675781h-1.457031v-44.753907h-46.890625zm0 0" fill="#ffd5b3"/><path d="m307.617188 431.699219-.058594-.011719v-62.617188h-23.609375v62.617188l.058593.011719c.617188 8.648437 7.789063 15.476562 16.574219 15.476562h23.609375c-8.785156 0-15.957031-6.828125-16.574218-15.476562zm0 0" fill="#e5bfa1"/><path d="m149.714844 400.796875h-25.210938c-8.96875 0-17.976562 2.679687-22.683594 10.855469l-17.71875 30.769531c-5.980468 10.382813-2.429687 23.65625 7.925782 29.652344 10.359375 5.992187 23.601562 2.4375 29.582031-7.945313l9.761719-16.953125h18.34375zm0 0" fill="#ffd5b3"/><path d="m107.285156 472.074219c-10.355468-5.996094-13.90625-19.269531-7.925781-29.652344l17.71875-30.769531c4.707031-8.175782 13.714844-10.855469 22.6875-10.855469h-15.261719c-8.96875 0-17.976562 2.679687-22.683594 10.855469l-17.71875 30.769531c-5.980468 10.382813-2.429687 23.65625 7.925782 29.652344 5.851562 3.386719 12.621094 3.722656 18.484375 1.503906-1.097657-.414063-2.179688-.898437-3.226563-1.503906zm0 0" fill="#e5bfa1"/><path d="m350.183594 203.644531c0-8.308593-6.71875-15.046875-15.003906-15.046875-8.289063 0-15.007813 6.738282-15.007813 15.046875 0 8.308594 6.71875 15.042969 15.007813 15.042969 8.285156 0 15.003906-6.734375 15.003906-15.042969zm0 0" fill="#ffb98a"/><path d="m484.222656 203.644531c0-8.308593-6.71875-15.046875-15.007812-15.046875-8.285156 0-15.003906 6.738282-15.003906 15.046875 0 8.308594 6.71875 15.042969 15.003906 15.042969 8.289062 0 15.007812-6.734375 15.007812-15.042969zm0 0" fill="#ffb98a"/><path d="m281.769531 140.164062s54.011719-15.542968 54.011719-58.726562c0 0 55.972656 35.332031 73.648438 23.554688 17.675781-11.777344-.980469-23.554688-.980469-23.554688s44.191406 31.40625 55.972656 20.609375c11.785156-10.796875-2.945313-18.648437-2.945313-18.648437s32.421876 23.160156 41.246094 12.761718c11.488282-13.542968-32.40625-97.164062-142.390625-87.351562-109.984375 9.816406-111.949219 106.820312-78.5625 131.355468zm0 0" fill="#f7931e"/><path d="m390.832031 8.808594c.722657-.0625 1.429688-.105469 2.148438-.164063-10.15625-.855469-21.03125-.871093-32.648438.164063-109.984375 9.816406-111.949219 106.820312-78.5625 131.355468 0 0 10.039063-2.890624 21.457031-9.636718-22.804687-33.832032-11.136718-112.90625 87.605469-121.71875zm0 0" fill="#de841b"/><path d="m355.730469 135.234375c-4.140625 0-7.5 3.359375-7.5 7.5v11.046875c0 4.144531 3.359375 7.5 7.5 7.5 4.144531 0 7.5-3.355469 7.5-7.5v-11.046875c0-4.140625-3.355469-7.5-7.5-7.5zm0 0"/><path d="m454.082031 161.28125c4.144531 0 7.5-3.355469 7.5-7.5v-11.046875c0-4.140625-3.355469-7.5-7.5-7.5-4.140625 0-7.5 3.359375-7.5 7.5v11.046875c0 4.144531 3.359375 7.5 7.5 7.5zm0 0"/><path d="m400.59375 170.972656h4.316406c6.515625 0 11.816406-5.609375 11.816406-12.5v-7.980468c0-4.144532-3.355468-7.5-7.5-7.5-4.140624 0-7.5 3.355468-7.5 7.5v5.480468h-1.132812c-4.140625 0-7.5 3.355469-7.5 7.5 0 4.140625 3.359375 7.5 7.5 7.5zm0 0"/><path d="m364.644531 198.503906c0 21.070313 17.105469 38.210938 38.128907 38.210938 21.027343 0 38.128906-17.140625 38.128906-38.210938 0-7.386718-6-13.394531-13.378906-13.394531h-49.5c-7.378907 0-13.378907 6.007813-13.378907 13.394531zm61.203125 1.605469c-.824218 12.050781-10.859375 21.605469-23.074218 21.605469-12.21875 0-22.253907-9.554688-23.078126-21.605469zm0 0"/><path d="m335.179688 181.097656c-12.410157 0-22.507813 10.113282-22.507813 22.546875 0 12.429688 10.097656 22.542969 22.507813 22.542969 12.410156 0 22.503906-10.113281 22.503906-22.542969 0-12.433593-10.09375-22.546875-22.503906-22.546875zm0 30.089844c-4.140626 0-7.507813-3.382812-7.507813-7.542969 0-4.160156 3.367187-7.546875 7.507813-7.546875 4.136718 0 7.503906 3.386719 7.503906 7.546875 0 4.160157-3.367188 7.542969-7.503906 7.542969zm0 0"/><path d="m505.539062 67.988281c-9.566406-18.460937-27.167968-35.890625-48.292968-47.8125-27.957032-15.78125-60.789063-22.117187-97.578125-18.835937-75.402344 6.726562-95.875 51.613281-101.179688 70.601562-6.203125 22.210938-3.023437 45.6875 7.324219 61.765625v.003907c-12.222656 3.394531-21.226562 14.667968-21.226562 28.027343v18.035157c0 12.578124 7.980468 23.3125 19.109374 27.355468l-109.203124 29.332032c-47.5 12.761718-75.789063 61.878906-63.0625 109.492187 1.839843 6.882813 4.457031 13.417969 7.753906 19.527344h-40.132813c-13.394531 0-23.757812 5.191406-29.1875 14.617187l-17.71875 30.765625c-5.296875 9.203125-5.007812 20.132813-.199219 28.8125h-4.445312c-4.140625 0-7.5 3.355469-7.5 7.5s3.359375 7.5 7.5 7.5h66.253906c.476563 9.582031 5.628906 18.746094 14.519532 23.890625 4.492187 2.601563 9.476562 3.929688 14.535156 3.929688 2.527344 0 5.070312-.332032 7.578125-1.003906 7.53125-2.019532 13.824219-6.855469 17.71875-13.621094l7.601562-13.195313h346.519531c4.140626 0 7.5-3.355469 7.5-7.5 0-4.140625-3.359374-7.5-7.5-7.5h-4.746093c1.164062-2.828125 1.8125-5.925781 1.8125-9.175781 0-10.011719-6.3125-18.980469-15.429688-22.535156-1.988281-3.511719-11.433593-20.160156-11.433593-20.160156-2.042969-3.605469-6.625-4.871094-10.222657-2.824219-3.605469 2.042969-4.867187 6.621093-2.824219 10.222656 0 0 11.660157 20.558594 12.878907 22.71875 1.042969 1.855469 2.824219 3.175781 4.898437 3.636719 4.132813.925781 7.132813 4.6875 7.132813 8.945312 0 5.058594-4.097657 9.175782-9.132813 9.175782h-22c-4.640625 0-8.261718-3.582032-8.613281-8.515626-.085937-1.175781-.445313-2.316406-1.050781-3.328124l-38.621094-64.273438 27.425781-16.101562c3.15625 5.5625 6.496094 11.457031 10.0625 17.738281 2.042969 3.601562 6.621094 4.867187 10.222657 2.824219 3.601562-2.046876 4.867187-6.621094 2.824218-10.226563-9.355468-16.488281-31.132812-54.882813-45.703125-80.65625h27.054688c32.609375 0 58.816406-11.8125 73.800781-33.261719 14.046875-20.109375 16.324219-46.46875 6.457031-74.351562v-45.984375c0-5.875-.53125-11.632813-1.546875-17.238281 5.539063.113281 9.875-1.648438 12.96875-5.292969 5.605469-6.609375 4.550782-18.644531-2.902344-33.023438zm-446.125 347.632813-9.761718 16.953125c-2.523438 4.378906-7.226563 7.101562-12.273438 7.101562-2.460937 0-4.898437-.65625-7.050781-1.902343-6.765625-3.917969-9.09375-12.632813-5.183594-19.425782l17.714844-30.761718c2.714844-4.710938 8.164063-7.101563 16.191406-7.101563h21.421875v31.378906h-14.558594c-2.683593 0-5.160156 1.433594-6.5 3.757813zm17.648438 24.054687h-14.191406l7.378906-12.8125h14.15625s-7.167969 12.480469-7.34375 12.8125zm18.410156-59.191406h13.917969c3.972656 4.714844 8.441406 9.023437 13.367187 12.855469-12.429687.429687-22.066406 5.472656-27.285156 14.328125zm46.742188 59.191406h-10.84375c-2.683594 0-5.160156 1.433594-6.5 3.757813l-9.761719 16.949218c-1.894531 3.289063-4.949219 5.640626-8.605469 6.617188-3.644531.980469-7.449218.476562-10.71875-1.417969-6.769531-3.917969-9.09375-12.628906-5.183594-19.417969l17.71875-30.769531c2.710938-4.710937 8.15625-7.101562 16.183594-7.101562h17.710938zm108.480468 0c11.289063-10.398437 18.378907-25.308593 18.378907-41.847656 0-2.4375-.152344-4.730469-.421875-6.914063l7.796875-2.097656s-.117188 43.96875 0 44.492188c.257812 2.230468 1.007812 4.367187 1.832031 6.367187zm81.597657 0h-31.710938c-4.757812 0-8.792969-3.738281-9.132812-8.511719-.011719-.140624 0-54.59375 0-54.59375h31.886719v37.253907c0 4.144531 3.359374 7.5 7.5 7.5h1.457031c4.902343 0 8.597656 3.945312 8.597656 9.175781s-3.695313 9.175781-8.597656 9.175781zm77.5-5.515625c.285156 1.933594.804687 3.773438 1.492187 5.515625h-57.101562c1.101562-2.816406 1.707031-5.910156 1.707031-9.175781 0-11.40625-7.34375-20.734375-17.554687-23.40625v-37.03125c8.445312-4.355469 16.121093-10.019531 22.792968-16.890625zm-4.894531-99.75-27.75 16.292969-8.496094-14.140625c-1.28125-2.128906-3.535156-3.488281-6.015625-3.625-2.476563-.144531-4.871094.964844-6.378907 2.941406-5.082031 6.664063-11.125 12.308594-17.921874 16.824219v-30.808594c0-4.140625-3.355469-7.5-7.5-7.5-4.140626 0-7.5 3.359375-7.5 7.5v39.675781h-31.886719v-39.675781c0-4.140625-3.359375-7.5-7.5-7.5s-7.5 3.359375-7.5 7.5v51.394531l-12.09375 3.246094c-7.625-14.730468-23.730469-22.59375-42.695313-31.847656-1.203125-.585938-2.425781-1.1875-3.660156-1.792969l-19.871094-41.628906c-1.78125-3.738281-6.257812-5.316406-9.996094-3.539063-3.738281 1.785157-5.324218 6.261719-3.539062 10l20.988281 43.984376.011719.003906c.699219 1.464844 1.871094 2.714844 3.4375 3.488281 2.0625 1.019531 4.078125 2.003906 6.050781 2.964844 27.035157 13.191406 38.992188 19.859375 38.992188 39.660156 0 23.074219-18.71875 41.847656-41.722657 41.847656h-55.136718v-31.378906h21.785156c4.140625 0 7.5-3.359375 7.5-7.5 0-4.144531-3.359375-7.5-7.5-7.5h-25.222656c-4.539063-1.550781-8.960938-3.542969-13.210938-5.996094-17.203125-9.933593-29.507812-25.992187-34.644531-45.21875-10.523437-39.371093 12.636719-79.957031 51.683594-90.902343l11.714843 24.546874c1.289063 2.695313 3.972657 4.269532 6.773438 4.269532 1.082031 0 2.183594-.234375 3.226562-.730469 3.738282-1.785156 5.320313-6.261719 3.539063-10l-10.53125-22.0625 105.851563-28.429687c1.390624-.375 2.765624-.710938 4.128906-1.03125 2.386718 5.515624 5.265625 10.808593 8.648437 15.839843-7.757812 24.296875 4.347657 50.289063 27.453125 58.402344 4.628906 1.625 9.457032 2.445313 14.347656 2.445313 13.75 0 26.792969-6.417969 35.667969-17.367188 1.289063.054688 2.570313.078125 3.832031.078125h.214844c6.328125 11.21875 16.390625 28.988281 32.425782 57.269531zm92.015624-243.167968c-1.027343.222656-5.386718.558593-16.476562-5.125-4.882812-2.503907-9.335938-5.300782-12.007812-7.058594-1.679688-1.316406-3.054688-2.082032-3.421876-2.277344-3.488281-1.855469-7.820312-.691406-9.902343 2.667969s-1.203125 7.757812 2.015625 10.054687c.109375.078125 1.027344.730469 2.535156 1.734375.996094.859375 1.773438 1.8125 1.835938 2.363281.023437.183594-.277344 1.214844-2.113282 2.898438-.042968.03125-5.183594 2.476562-24.574218-7.714844-9.484376-4.984375-22.140626-13.558594-22.347657-13.6875-3.4375-2.171875-7.976562-1.210937-10.234375 2.164063-2.261718 3.375-1.425781 7.9375 1.882813 10.289062.082031.058594.484375.34375 1.15625.808594 1.789062 1.382813 4.261719 3.964844 4.28125 5.648437.011719.910157-1.105469 2.636719-4.269531 4.742188-1.074219.71875-5.636719 2.738281-19.097657-1.335938-3.960937-1.203124-8.152343 1.039063-9.351562 5.003907-1.199219 3.964843 1.039062 8.152343 5.003906 9.351562 14.320313 4.335938 24.710937 4.164063 31.761719-.535156 5.726562-3.816406 8.597656-7.878906 9.929687-11.507813 1.636719.914063 3.324219 1.828126 5.042969 2.722657 12.75 6.617187 30.863281 14.351562 40.929688 5.128906 2.757812-2.523437 4.5-5.03125 5.554687-7.382813.152344.078126.304687.152344.457031.226563 1.246094.605469 2.449219 1.148437 3.636719 1.660156 1.867187 6.78125 2.878906 13.964844 2.878906 21.464844v47.289063c0 .882812.152344 1.753906.457031 2.582031 2.03125 5.539062 3.496094 10.984375 4.410157 16.289062-4.121094-5.238281-10.507813-8.609375-17.667969-8.609375-12.410156 0-22.507812 10.113282-22.507812 22.546875 0 12.433594 10.097656 22.546875 22.507812 22.546875 6.644531 0 12.625-2.90625 16.75-7.511718-1.621094 6-4.1875 11.578124-7.703125 16.613281-12.097656 17.3125-33.9375 26.566406-61.503906 26.566406h-51.328125c-2.710938-.230469-5.324219 1.035156-6.839844 3.292969-6.007812 8.941406-15.664062 14.28125-25.835938 14.28125-3.195312 0-6.351562-.539063-9.382812-1.605469-15.71875-5.519531-23.71875-23.726563-17.828125-40.585937.199219-.570313.433594-1.183594.722656-1.875 1.007813-2.421876.675781-5.195313-.875-7.3125-6.332031-8.648438-10.890625-18.261719-13.546875-28.574219-.851562-3.3125-3.839844-5.628907-7.261718-5.628907h-11.097657c-7.664062 0-13.902343-6.316406-13.902343-14.078124v-18.035157c0-7.761719 6.238281-14.074219 13.902343-14.074219h8.285157c.691406 0 1.390624-.097656 2.074218-.292968.597656-.171875 14.835938-4.335938 29.179688-14.195313 15.667968-10.773437 25.488281-24.234375 28.902344-39.410156 1.972656 1.105469 4.171874 2.316406 6.546874 3.578125 3.660157 1.941406 8.199219.554688 10.144532-3.105469 1.941406-3.65625.550781-8.195312-3.105469-10.140625-9.117187-4.84375-15.667969-8.960937-15.730469-9.003906-2.3125-1.457031-5.230468-1.539062-7.625-.222656-2.394531 1.320312-3.878906 3.835937-3.878906 6.566406 0 30.871094-33.585938 46.023438-44.910156 50.253906-10.34375-10.132812-17.121094-31.773437-10.433594-55.71875 9.4375-33.78125 41.53125-55.539062 88.0625-59.691406 78.441406-7.011719 115.558594 35.488281 125.066406 48.679688 9.949219 13.804687 11.417969 23.691406 10.847656 26.28125zm-20.191406 112.402343c0 4.160157-3.367187 7.542969-7.503906 7.542969-4.140625 0-7.507812-3.382812-7.507812-7.542969 0-4.160156 3.367187-7.546875 7.507812-7.546875 4.136719 0 7.503906 3.386719 7.503906 7.546875zm0 0"/></svg>