<svg height="512" viewBox="0 0 64 64" width="512" xmlns="http://www.w3.org/2000/svg"><g id="Solution"><path d="m36 46v-12.828a4.116 4.116 0 0 0 -3.607-4.153 4 4 0 0 0 -4.393 3.981v3.32l-3.54-3.54a4.971 4.971 0 0 1 -6.225 5.52l-2.761 8.284a4 4 0 0 0 .1 2.8l4.426 10.616v2h16v-3l.926-1.852a10 10 0 0 0 .247-8.411z" fill="#ffbcab"/><path d="m38.61 32.78-.22.22h.2c.01-.073.01-.147.02-.22z" fill="#57a4ff"/><path d="m40.02 37.02a4.974 4.974 0 0 1 -1.429-4.02h-.2l-2.391 2.39v6.61a5 5 0 0 0 5 5h1a2 2 0 0 0 2-2v-6.56a4.967 4.967 0 0 1 -3.98-1.42z" fill="#e5a99a"/><path d="m42.85 28.54 7.07-7.08-6.36-6.36a5.011 5.011 0 0 1 -1.42 2.83 5.05 5.05 0 0 1 -7.07 0 5.006 5.006 0 0 1 2.83-8.49l-6.36-6.36-7.08 7.07a5 5 0 1 0 -4.24 4.24l-7.07 7.07 7.07 7.08a5 5 0 1 0 4.24 4.24l3.54 3.54v-3.32a4 4 0 0 1 8 0v2.39l2.61-2.61a5 5 0 1 0 4.24-4.24z" fill="#ffcd00"/><path d="m42.85 28.54 7.07-7.08-6.36-6.36a5.011 5.011 0 0 1 -1.42 2.83 4.953 4.953 0 0 1 -2.335 1.3 34.206 34.206 0 0 1 -5.03 10.9 3.978 3.978 0 0 1 1.225 2.87v2.39l2.61-2.61a5 5 0 1 0 4.24-4.24z" fill="#e5b800"/><g fill="#231f20"><path d="m50.627 20.753-6.36-6.36a1 1 0 0 0 -1.7.563 4 4 0 1 1 -4.526-4.526 1 1 0 0 0 .563-1.7l-6.36-6.36a1 1 0 0 0 -1.414 0l-5.523 5.521a6 6 0 1 0 -7.347 7.345l-5.517 5.517a1 1 0 0 0 0 1.414l5.519 5.526a6 6 0 0 0 -.727 11.343l-2.335 6.735a5 5 0 0 0 .172 4.407l3.51 8.3a.8.8 0 0 0 .045.093 3.053 3.053 0 0 1 .373 1.469v.96a1 1 0 0 0 2 0v-.96a5.062 5.062 0 0 0 -.6-2.384l-3.511-8.3a.9.9 0 0 0 -.048-.1 3.036 3.036 0 0 1 -.088-2.744l2.446-7.04c.105 0 .208.015.314.015a5.989 5.989 0 0 0 5.791-4.442l1.696 1.689v10.266a1 1 0 0 0 2 0v-14a3 3 0 0 1 6 0v12.111a9.05 9.05 0 0 0 .95 4.025l.366.734a7.026 7.026 0 0 1 0 6.26l-1 2a3.014 3.014 0 0 0 -.316 1.342v1.528a1 1 0 0 0 2 0v-1.528a1.019 1.019 0 0 1 .1-.447l1-2a9.036 9.036 0 0 0 0-8.049l-.366-.734a7.035 7.035 0 0 1 -.687-2.295 6.979 6.979 0 0 0 4.953 2.053 3 3 0 0 0 3-3v-5.7a5.994 5.994 0 0 0 .109-11.609l5.518-5.526a1 1 0 0 0 0-1.412zm-8.627 25.247a5.006 5.006 0 0 1 -5-5v-5.2l.764-.764a5.984 5.984 0 0 0 5.236 4.42v5.544a1 1 0 0 1 -1 1zm.143-18.167a1 1 0 0 0 .852 1.7 4 4 0 1 1 -3.4 3.4 1 1 0 0 0 -1.7-.852l-.895.897a5 5 0 0 0 -10 .022v.906l-1.833-1.833a1 1 0 0 0 -1.7.852 4 4 0 1 1 -3.4-3.4 1 1 0 0 0 .853-1.7l-6.357-6.365 6.364-6.36a1 1 0 0 0 -.852-1.7 4 4 0 0 1 -3.388-6.784 4.1 4.1 0 0 1 5.656 0 4 4 0 0 1 1.128 3.388 1 1 0 0 0 1.7.852l6.369-6.362 4.481 4.482a6 6 0 1 0 8 8l4.482 4.481z"/><path d="m61 23h-6a1 1 0 0 1 0-2h6a1 1 0 0 1 0 2z"/><path d="m53.919 11.5a1 1 0 0 1 -.5-1.866l5.2-3a1 1 0 0 1 1 1.732l-5.2 3a.992.992 0 0 1 -.5.134z"/><path d="m59.114 37.5a.992.992 0 0 1 -.5-.134l-5.2-3a1 1 0 1 1 1-1.732l5.2 3a1 1 0 0 1 -.5 1.866z"/><path d="m9 23h-6a1 1 0 0 1 0-2h6a1 1 0 0 1 0 2z"/><path d="m10.081 11.5a.992.992 0 0 1 -.5-.134l-5.2-3a1 1 0 0 1 1-1.732l5.2 3a1 1 0 0 1 -.5 1.866z"/><path d="m4.886 37.5a1 1 0 0 1 -.5-1.866l5.2-3a1 1 0 1 1 1 1.732l-5.2 3a.992.992 0 0 1 -.5.134z"/></g></g></svg>