<?xml version="1.0" encoding="UTF-8" standalone="no"?>
<!-- Created with Inkscape (http://www.inkscape.org/) -->

<svg
   xmlns:dc="http://purl.org/dc/elements/1.1/"
   xmlns:cc="http://creativecommons.org/ns#"
   xmlns:rdf="http://www.w3.org/1999/02/22-rdf-syntax-ns#"
   xmlns:svg="http://www.w3.org/2000/svg"
   xmlns="http://www.w3.org/2000/svg"
   xmlns:sodipodi="http://sodipodi.sourceforge.net/DTD/sodipodi-0.dtd"
   xmlns:inkscape="http://www.inkscape.org/namespaces/inkscape"
   width="103.88094mm"
   height="22.170443mm"
   viewBox="0 0 103.88094 22.170443"
   version="1.1"
   id="svg8"
   inkscape:version="0.92.3 (3ce5693, 2018-03-11)"
   sodipodi:docname="logo_docdoku.svg">
  <defs
     id="defs2">
    <clipPath
       id="clipPath3729"
       clipPathUnits="userSpaceOnUse">
      <path
         inkscape:connector-curvature="0"
         id="path3727"
         d="M 0,283.46 H 425.2 V 0 H 0 Z" />
    </clipPath>
  </defs>
  <sodipodi:namedview
     id="base"
     pagecolor="#ffffff"
     bordercolor="#666666"
     borderopacity="1.0"
     inkscape:pageopacity="0.0"
     inkscape:pageshadow="2"
     inkscape:zoom="1.4"
     inkscape:cx="-220.69677"
     inkscape:cy="-155.38984"
     inkscape:document-units="mm"
     inkscape:current-layer="layer1"
     showgrid="false"
     inkscape:window-width="3840"
     inkscape:window-height="2022"
     inkscape:window-x="0"
     inkscape:window-y="64"
     inkscape:window-maximized="1"
     fit-margin-top="0"
     fit-margin-left="0"
     fit-margin-right="0"
     fit-margin-bottom="0" />
  <metadata
     id="metadata5">
    <rdf:RDF>
      <cc:Work
         rdf:about="">
        <dc:format>image/svg+xml</dc:format>
        <dc:type
           rdf:resource="http://purl.org/dc/dcmitype/StillImage" />
        <dc:title></dc:title>
      </cc:Work>
    </rdf:RDF>
  </metadata>
  <g
     inkscape:label="Calque 1"
     inkscape:groupmode="layer"
     id="layer1"
     transform="translate(-50.868727,-23.296614)">
    <g
       transform="matrix(0.35277777,0,0,-0.35277777,27.315572,84.537459)"
       inkscape:label="logo_docdoku"
       id="g3721">
      <g
         id="g3723">
        <g
           clip-path="url(#clipPath3729)"
           id="g3725">
          <g
             transform="translate(152.2124,153.7217)"
             id="g3731">
            <path
               inkscape:connector-curvature="0"
               id="path3733"
               style="fill:#2e3442;fill-opacity:1;fill-rule:nonzero;stroke:none"
               d="m 0,0 v -21.582 h 3.738 c 1.643,0 3.13,0.269 4.462,0.807 1.331,0.538 2.478,1.281 3.441,2.229 0.963,0.948 1.706,2.075 2.231,3.378 0.524,1.304 0.786,2.72 0.786,4.249 0,1.558 -0.269,3.009 -0.807,4.356 -0.538,1.345 -1.29,2.499 -2.252,3.462 C 10.636,-2.138 9.481,-1.38 8.137,-0.828 6.791,-0.275 5.325,0 3.738,0 Z m -5.779,-27.361 v 33.14 h 9.517 c 2.465,0 4.717,-0.396 6.756,-1.189 2.04,-0.794 3.796,-1.906 5.269,-3.337 1.473,-1.43 2.62,-3.136 3.441,-5.119 0.821,-1.984 1.233,-4.177 1.233,-6.585 0,-2.379 -0.419,-4.604 -1.254,-6.67 -0.836,-2.069 -1.99,-3.861 -3.463,-5.375 -1.473,-1.516 -3.236,-2.705 -5.289,-3.57 -2.055,-0.864 -4.285,-1.295 -6.693,-1.295 z" />
          </g>
          <g
             transform="translate(191.875,153.7217)"
             id="g3735">
            <path
               inkscape:connector-curvature="0"
               id="path3737"
               style="fill:#2e3442;fill-opacity:1;fill-rule:nonzero;stroke:none"
               d="m 0,0 c -1.583,0 -3.039,-0.269 -4.368,-0.807 -1.329,-0.538 -2.481,-1.289 -3.457,-2.252 -0.975,-0.962 -1.739,-2.11 -2.29,-3.441 -0.551,-1.331 -0.826,-2.803 -0.826,-4.419 0,-1.558 0.268,-2.989 0.805,-4.29 0.537,-1.304 1.287,-2.43 2.248,-3.379 0.961,-0.949 2.113,-1.685 3.456,-2.209 1.343,-0.525 2.82,-0.785 4.432,-0.785 h 0.976 c 1.64,0 3.13,0.269 4.473,0.807 1.343,0.538 2.495,1.281 3.457,2.229 0.961,0.948 1.703,2.075 2.226,3.378 0.523,1.304 0.785,2.72 0.785,4.249 0,1.586 -0.269,3.044 -0.806,4.377 C 10.574,-5.211 9.818,-4.056 8.843,-3.08 7.867,-2.102 6.708,-1.345 5.365,-0.807 4.021,-0.269 2.559,0 0.976,0 Z m -0.001,-27.361 c -2.439,0 -4.688,0.431 -6.744,1.295 -2.055,0.865 -3.821,2.06 -5.295,3.591 -1.476,1.529 -2.624,3.321 -3.447,5.374 -0.822,2.054 -1.233,4.271 -1.233,6.65 0,2.378 0.404,4.56 1.212,6.543 0.809,1.981 1.943,3.696 3.404,5.141 1.461,1.445 3.218,2.563 5.275,3.357 2.056,0.793 4.331,1.189 6.828,1.189 h 0.978 c 2.524,0 4.814,-0.403 6.87,-1.212 2.056,-0.807 3.815,-1.933 5.275,-3.376 1.461,-1.445 2.588,-3.159 3.382,-5.141 0.794,-1.983 1.192,-4.15 1.192,-6.501 0,-2.379 -0.412,-4.596 -1.235,-6.65 -0.823,-2.053 -1.978,-3.845 -3.466,-5.374 -1.49,-1.531 -3.255,-2.726 -5.297,-3.591 -2.042,-0.864 -4.281,-1.295 -6.721,-1.295 z" />
          </g>
          <g
             transform="translate(228.6055,126.3604)"
             id="g3739">
            <path
               inkscape:connector-curvature="0"
               id="path3741"
               style="fill:#2e3442;fill-opacity:1;fill-rule:nonzero;stroke:none"
               d="m 0,0 c -2.465,0 -4.725,0.432 -6.778,1.295 -2.054,0.865 -3.81,2.055 -5.27,3.57 -1.458,1.514 -2.598,3.306 -3.419,5.375 -0.822,2.067 -1.232,4.291 -1.232,6.671 0,2.407 0.404,4.601 1.211,6.584 0.807,1.984 1.939,3.69 3.398,5.12 1.46,1.43 3.216,2.542 5.268,3.336 2.054,0.793 4.328,1.189 6.822,1.189 H 4.842 V 27.361 H 0 c -1.589,0 -3.055,-0.275 -4.398,-0.827 -1.348,-0.553 -2.507,-1.31 -3.484,-2.274 -0.979,-0.963 -1.743,-2.116 -2.296,-3.462 -0.552,-1.346 -0.828,-2.798 -0.828,-4.356 0,-1.558 0.27,-2.989 0.808,-4.29 C -9.66,10.849 -8.91,9.723 -7.946,8.773 -6.984,7.824 -5.822,7.088 -4.463,6.564 -3.104,6.039 -1.615,5.779 0,5.779 H 4.842 V 0 Z" />
          </g>
          <g
             transform="translate(241.7764,153.7217)"
             id="g3743">
            <path
               inkscape:connector-curvature="0"
               id="path3745"
               style="fill:#4a84b5;fill-opacity:1;fill-rule:nonzero;stroke:none"
               d="m 0,0 v -21.582 h 3.737 c 1.644,0 3.129,0.269 4.463,0.807 1.331,0.538 2.479,1.281 3.442,2.229 0.962,0.948 1.705,2.075 2.229,3.378 0.525,1.304 0.786,2.72 0.786,4.249 0,1.558 -0.269,3.009 -0.806,4.356 -0.539,1.345 -1.291,2.499 -2.252,3.462 -0.963,0.963 -2.12,1.721 -3.463,2.273 C 6.789,-0.275 5.323,0 3.737,0 Z m -5.78,-27.361 v 33.14 h 9.517 c 2.465,0 4.718,-0.396 6.758,-1.189 2.039,-0.794 3.795,-1.906 5.268,-3.337 1.472,-1.43 2.619,-3.136 3.441,-5.119 0.821,-1.984 1.233,-4.177 1.233,-6.585 0,-2.379 -0.42,-4.604 -1.254,-6.67 -0.836,-2.069 -1.99,-3.861 -3.462,-5.375 -1.474,-1.516 -3.239,-2.705 -5.29,-3.57 -2.055,-0.864 -4.286,-1.295 -6.694,-1.295 z" />
          </g>
          <g
             transform="translate(281.4385,153.7217)"
             id="g3747">
            <path
               inkscape:connector-curvature="0"
               id="path3749"
               style="fill:#4a84b5;fill-opacity:1;fill-rule:nonzero;stroke:none"
               d="m 0,0 c -1.584,0 -3.04,-0.269 -4.367,-0.807 -1.331,-0.538 -2.482,-1.289 -3.458,-2.252 -0.977,-0.962 -1.739,-2.11 -2.291,-3.441 -0.551,-1.331 -0.824,-2.803 -0.824,-4.419 0,-1.558 0.267,-2.989 0.803,-4.29 0.536,-1.304 1.287,-2.43 2.247,-3.379 0.963,-0.949 2.115,-1.685 3.458,-2.209 1.344,-0.525 2.82,-0.785 4.432,-0.785 h 0.975 c 1.639,0 3.131,0.269 4.475,0.807 1.342,0.538 2.494,1.281 3.455,2.229 0.962,0.948 1.703,2.075 2.227,3.378 0.523,1.304 0.785,2.72 0.785,4.249 0,1.586 -0.27,3.044 -0.806,4.377 C 10.573,-5.211 9.817,-4.056 8.843,-3.08 7.866,-2.102 6.707,-1.345 5.364,-0.807 4.021,-0.269 2.559,0 0.975,0 Z m -0.002,-27.361 c -2.438,0 -4.687,0.431 -6.743,1.295 -2.057,0.865 -3.822,2.06 -5.294,3.591 -1.476,1.529 -2.624,3.321 -3.448,5.374 -0.822,2.054 -1.234,4.271 -1.234,6.65 0,2.378 0.405,4.56 1.213,6.543 0.809,1.981 1.943,3.696 3.404,5.141 1.46,1.445 3.219,2.563 5.275,3.357 2.056,0.793 4.33,1.189 6.827,1.189 h 0.98 c 2.523,0 4.814,-0.403 6.87,-1.212 2.055,-0.807 3.814,-1.933 5.274,-3.376 1.459,-1.445 2.587,-3.159 3.383,-5.141 0.793,-1.983 1.19,-4.15 1.19,-6.501 0,-2.379 -0.411,-4.596 -1.233,-6.65 -0.823,-2.053 -1.979,-3.845 -3.468,-5.374 -1.49,-1.531 -3.254,-2.726 -5.295,-3.591 -2.043,-0.864 -4.282,-1.295 -6.721,-1.295 z" />
          </g>
          <g
             transform="translate(315.7451,139.7451)"
             id="g3751">
            <path
               inkscape:connector-curvature="0"
               id="path3753"
               style="fill:#4a84b5;fill-opacity:1;fill-rule:nonzero;stroke:none"
               d="m 0,0 -7.732,-11.898 c -0.397,-0.653 -0.887,-1.098 -1.467,-1.338 -0.579,-0.241 -1.196,-0.362 -1.848,-0.362 -0.736,0 -1.332,0.255 -1.783,0.766 -0.454,0.509 -0.68,1.203 -0.68,2.081 v 30.506 h 5.778 V -2.637 L 6.459,19.755 h 6.884 L 3.441,5.14 16.953,-13.385 H 9.135 Z" />
          </g>
          <g
             transform="translate(359.8486,159.5005)"
             id="g3755">
            <path
               inkscape:connector-curvature="0"
               id="path3757"
               style="fill:#4a84b5;fill-opacity:1;fill-rule:nonzero;stroke:none"
               d="M 0,0 V -18.185 C 0,-23 -1.111,-26.697 -3.335,-29.274 -5.56,-31.851 -8.684,-33.14 -12.704,-33.14 h -1.106 c -4.049,0 -7.171,1.281 -9.368,3.846 -2.196,2.562 -3.293,6.266 -3.293,11.109 V 0 h 5.779 v -18.185 c 0,-1.756 0.128,-3.214 0.383,-4.375 0.255,-1.162 0.658,-2.105 1.21,-2.826 0.553,-0.722 1.26,-1.233 2.125,-1.53 0.864,-0.297 1.917,-0.445 3.164,-0.445 h 1.106 c 1.218,0 2.265,0.154 3.144,0.467 0.876,0.311 1.6,0.821 2.165,1.529 0.568,0.708 0.98,1.649 1.235,2.825 0.254,1.175 0.382,2.628 0.382,4.355 V 0 Z" />
          </g>
          <g
             transform="translate(200.9517,114.6572)"
             id="g3759">
            <path
               inkscape:connector-curvature="0"
               id="path3761"
               style="fill:#2e3442;fill-opacity:1;fill-rule:nonzero;stroke:none"
               d="m 0,0 c 0.642,0 1.108,0.175 1.397,0.523 0.29,0.35 0.434,0.915 0.434,1.694 v 0.199 c 0,0.881 -0.147,1.509 -0.439,1.885 -0.293,0.377 -0.761,0.563 -1.403,0.563 -0.553,0 -0.975,-0.214 -1.267,-0.642 -0.294,-0.429 -0.44,-1.034 -0.44,-1.818 0,-0.795 0.146,-1.393 0.436,-1.798 C -0.991,0.202 -0.564,0 0,0 M 1.882,0.158 H 1.831 c -0.435,-0.631 -1.085,-0.945 -1.95,-0.945 -0.813,0 -1.445,0.277 -1.897,0.833 -0.451,0.556 -0.678,1.345 -0.678,2.37 0,1.023 0.228,1.82 0.681,2.387 0.453,0.566 1.085,0.849 1.894,0.849 0.842,0 1.489,-0.306 1.939,-0.918 H 1.893 L 1.854,5.182 1.831,5.618 V 8.147 H 2.772 V -0.674 H 2.006 Z" />
          </g>
          <path
             inkscape:connector-curvature="0"
             id="path3763"
             style="fill:#2e3442;fill-opacity:1;fill-rule:nonzero;stroke:none"
             d="m 206.8,113.983 h -0.941 v 6.213 h 0.941 z m -1.021,7.897 c 0,0.216 0.053,0.374 0.159,0.474 0.106,0.1 0.238,0.149 0.397,0.149 0.151,0 0.281,-0.049 0.392,-0.152 0.109,-0.102 0.164,-0.258 0.164,-0.471 0,-0.211 -0.055,-0.369 -0.164,-0.474 -0.111,-0.102 -0.241,-0.154 -0.392,-0.154 -0.159,0 -0.291,0.052 -0.397,0.154 -0.106,0.105 -0.159,0.263 -0.159,0.474" />
          <g
             transform="translate(209.5757,118.207)"
             id="g3765">
            <path
               inkscape:connector-curvature="0"
               id="path3767"
               style="fill:#2e3442;fill-opacity:1;fill-rule:nonzero;stroke:none"
               d="m 0,0 c 0,-0.435 0.123,-0.764 0.369,-0.987 0.245,-0.223 0.587,-0.334 1.026,-0.334 0.918,0 1.377,0.446 1.377,1.338 0,0.933 -0.464,1.4 -1.395,1.4 C 0.935,1.417 0.595,1.298 0.357,1.06 0.119,0.821 0,0.469 0,0 m -0.51,-5.269 c 0,-0.335 0.142,-0.59 0.425,-0.764 0.283,-0.175 0.689,-0.261 1.219,-0.261 0.789,0 1.375,0.119 1.754,0.354 0.381,0.237 0.57,0.557 0.57,0.962 0,0.336 -0.104,0.571 -0.312,0.701 -0.208,0.13 -0.599,0.194 -1.173,0.194 H 0.845 c -0.427,0 -0.76,-0.102 -0.998,-0.306 -0.239,-0.204 -0.357,-0.497 -0.357,-0.88 M 4.445,1.989 V 1.396 L 3.293,1.258 C 3.4,1.126 3.494,0.954 3.577,0.739 3.66,0.524 3.702,0.285 3.702,0.017 3.702,-0.591 3.494,-1.078 3.079,-1.44 2.663,-1.803 2.092,-1.985 1.366,-1.985 1.181,-1.985 1.007,-1.97 0.845,-1.94 0.444,-2.151 0.244,-2.419 0.244,-2.739 c 0,-0.17 0.07,-0.296 0.209,-0.377 0.14,-0.08 0.38,-0.122 0.72,-0.122 h 1.101 c 0.672,0 1.189,-0.142 1.55,-0.425 0.361,-0.284 0.542,-0.695 0.542,-1.236 0,-0.688 -0.277,-1.211 -0.828,-1.573 -0.552,-0.361 -1.358,-0.541 -2.415,-0.541 -0.813,0 -1.44,0.15 -1.88,0.453 -0.44,0.303 -0.661,0.729 -0.661,1.281 0,0.378 0.122,0.706 0.363,0.981 0.242,0.276 0.582,0.463 1.021,0.562 -0.159,0.071 -0.293,0.182 -0.4,0.333 -0.108,0.152 -0.162,0.328 -0.162,0.529 0,0.226 0.061,0.426 0.182,0.594 0.121,0.172 0.311,0.336 0.573,0.494 -0.322,0.131 -0.584,0.357 -0.786,0.674 -0.202,0.318 -0.303,0.679 -0.303,1.09 0,0.679 0.204,1.205 0.613,1.572 0.408,0.369 0.986,0.553 1.734,0.553 0.325,0 0.618,-0.038 0.879,-0.114 z" />
          </g>
          <path
             inkscape:connector-curvature="0"
             id="path3769"
             style="fill:#2e3442;fill-opacity:1;fill-rule:nonzero;stroke:none"
             d="m 216.377,113.983 h -0.94 v 6.213 h 0.94 z m -1.022,7.897 c 0,0.216 0.054,0.374 0.159,0.474 0.106,0.1 0.238,0.149 0.398,0.149 0.151,0 0.281,-0.049 0.391,-0.152 0.109,-0.102 0.164,-0.258 0.164,-0.471 0,-0.211 -0.055,-0.369 -0.164,-0.474 -0.11,-0.102 -0.24,-0.154 -0.391,-0.154 -0.16,0 -0.292,0.052 -0.398,0.154 -0.105,0.105 -0.159,0.263 -0.159,0.474" />
          <g
             transform="translate(220.5176,114.6465)"
             id="g3771">
            <path
               inkscape:connector-curvature="0"
               id="path3773"
               style="fill:#2e3442;fill-opacity:1;fill-rule:nonzero;stroke:none"
               d="M 0,0 C 0.168,0 0.328,0.011 0.483,0.037 0.638,0.062 0.76,0.087 0.851,0.112 V -0.607 C 0.749,-0.655 0.6,-0.698 0.4,-0.728 0.203,-0.761 0.023,-0.776 -0.135,-0.776 c -1.203,0 -1.803,0.632 -1.803,1.899 v 3.695 h -0.891 v 0.454 l 0.891,0.391 0.398,1.327 h 0.544 V 5.55 H 0.806 V 4.818 H -0.996 V 1.161 c 0,-0.373 0.088,-0.66 0.265,-0.861 C -0.553,0.101 -0.31,0 0,0" />
          </g>
          <g
             transform="translate(224.4453,114.6465)"
             id="g3775">
            <path
               inkscape:connector-curvature="0"
               id="path3777"
               style="fill:#2e3442;fill-opacity:1;fill-rule:nonzero;stroke:none"
               d="m 0,0 c 0.586,0 1.047,0.159 1.381,0.481 0.333,0.321 0.5,0.771 0.5,1.349 V 2.393 L 0.941,2.353 C 0.193,2.326 -0.347,2.21 -0.677,2.004 -1.009,1.798 -1.173,1.478 -1.173,1.042 c 0,-0.34 0.103,-0.6 0.31,-0.776 C -0.657,0.089 -0.371,0 0,0 M 2.127,-0.663 1.939,0.221 H 1.895 C 1.584,-0.169 1.275,-0.432 0.967,-0.57 0.658,-0.709 0.273,-0.776 -0.188,-0.776 c -0.615,0 -1.097,0.158 -1.447,0.474 -0.349,0.319 -0.523,0.771 -0.523,1.356 0,1.255 1.002,1.912 3.009,1.973 l 1.053,0.035 v 0.384 c 0,0.489 -0.103,0.849 -0.312,1.08 C 1.381,4.759 1.045,4.875 0.583,4.875 0.066,4.875 -0.52,4.718 -1.173,4.399 l -0.29,0.721 c 0.307,0.166 0.641,0.297 1.007,0.39 0.364,0.094 0.729,0.141 1.097,0.141 0.742,0 1.289,-0.164 1.646,-0.492 C 2.645,4.83 2.822,4.304 2.822,3.577 v -4.24 z" />
          </g>
          <path
             inkscape:connector-curvature="0"
             id="path3779"
             style="fill:#2e3442;fill-opacity:1;fill-rule:nonzero;stroke:none"
             d="m 230.287,113.983 h -0.941 v 8.821 h 0.941 z" />
          <g
             transform="translate(237.9492,119.5215)"
             id="g3781">
            <path
               inkscape:connector-curvature="0"
               id="path3783"
               style="fill:#2e3442;fill-opacity:1;fill-rule:nonzero;stroke:none"
               d="M 0,0 C -0.5,0 -0.896,-0.163 -1.194,-0.486 -1.49,-0.812 -1.666,-1.261 -1.718,-1.837 H 1.53 c 0,0.594 -0.132,1.047 -0.396,1.363 C 0.869,-0.157 0.491,0 0,0 m 0.254,-5.651 c -0.918,0 -1.643,0.279 -2.175,0.838 -0.53,0.56 -0.796,1.336 -0.796,2.331 0,1.002 0.248,1.795 0.741,2.385 0.494,0.59 1.156,0.885 1.987,0.885 0.778,0 1.393,-0.256 1.848,-0.767 0.454,-0.512 0.68,-1.189 0.68,-2.028 V -2.602 H -1.74 c 0.017,-0.729 0.203,-1.284 0.551,-1.661 0.351,-0.379 0.842,-0.567 1.478,-0.567 0.668,0 1.33,0.141 1.984,0.419 v -0.84 C 1.939,-5.394 1.627,-5.497 1.328,-5.558 1.032,-5.621 0.673,-5.651 0.254,-5.651" />
          </g>
          <g
             transform="translate(246.4844,113.9834)"
             id="g3785">
            <path
               inkscape:connector-curvature="0"
               id="path3787"
               style="fill:#2e3442;fill-opacity:1;fill-rule:nonzero;stroke:none"
               d="M 0,0 V 4.02 C 0,4.525 -0.116,4.903 -0.346,5.152 -0.577,5.402 -0.938,5.527 -1.428,5.527 -2.078,5.527 -2.556,5.352 -2.858,5 -3.16,4.648 -3.311,4.068 -3.311,3.26 V 0 h -0.941 v 6.213 h 0.766 l 0.152,-0.851 h 0.045 c 0.193,0.306 0.463,0.543 0.81,0.712 0.349,0.168 0.735,0.252 1.165,0.252 0.747,0 1.31,-0.18 1.687,-0.541 C 0.752,5.424 0.94,4.848 0.94,4.053 V 0 Z" />
          </g>
          <g
             transform="translate(251.5039,114.6465)"
             id="g3789">
            <path
               inkscape:connector-curvature="0"
               id="path3791"
               style="fill:#2e3442;fill-opacity:1;fill-rule:nonzero;stroke:none"
               d="m 0,0 c 0.168,0 0.328,0.011 0.483,0.037 0.156,0.025 0.278,0.05 0.368,0.075 V -0.607 C 0.749,-0.655 0.6,-0.698 0.401,-0.728 0.203,-0.761 0.024,-0.776 -0.135,-0.776 c -1.202,0 -1.803,0.632 -1.803,1.899 v 3.695 h -0.891 v 0.454 l 0.891,0.391 0.398,1.327 h 0.544 V 5.55 H 0.806 V 4.818 H -0.996 V 1.161 c 0,-0.373 0.088,-0.66 0.265,-0.861 C -0.553,0.101 -0.309,0 0,0" />
          </g>
          <g
             transform="translate(256.1064,119.5215)"
             id="g3793">
            <path
               inkscape:connector-curvature="0"
               id="path3795"
               style="fill:#2e3442;fill-opacity:1;fill-rule:nonzero;stroke:none"
               d="M 0,0 C -0.499,0 -0.897,-0.163 -1.193,-0.486 -1.489,-0.812 -1.664,-1.261 -1.719,-1.837 H 1.53 c 0,0.594 -0.132,1.047 -0.397,1.363 C 0.868,-0.157 0.491,0 0,0 m 0.257,-5.651 c -0.92,0 -1.644,0.279 -2.176,0.838 -0.531,0.56 -0.797,1.336 -0.797,2.331 0,1.002 0.246,1.795 0.739,2.385 0.494,0.59 1.158,0.885 1.989,0.885 0.778,0 1.395,-0.256 1.847,-0.767 0.453,-0.512 0.682,-1.189 0.682,-2.028 v -0.595 h -4.282 c 0.019,-0.729 0.203,-1.284 0.554,-1.661 0.348,-0.379 0.84,-0.567 1.475,-0.567 0.671,0 1.331,0.141 1.985,0.419 v -0.84 C 1.941,-5.394 1.626,-5.497 1.329,-5.558 1.032,-5.621 0.675,-5.651 0.257,-5.651" />
          </g>
          <g
             transform="translate(263.2256,120.3096)"
             id="g3797">
            <path
               inkscape:connector-curvature="0"
               id="path3799"
               style="fill:#2e3442;fill-opacity:1;fill-rule:nonzero;stroke:none"
               d="M 0,0 C 0.274,0 0.522,-0.023 0.741,-0.068 L 0.612,-0.941 c -0.258,0.056 -0.484,0.086 -0.679,0.086 -0.504,0 -0.935,-0.206 -1.292,-0.613 -0.357,-0.407 -0.536,-0.917 -0.536,-1.526 v -3.332 h -0.94 v 6.213 h 0.776 l 0.109,-1.151 h 0.045 c 0.23,0.405 0.508,0.716 0.832,0.935 C -0.747,-0.109 -0.39,0 0,0" />
          </g>
          <g
             transform="translate(268.0234,119.5107)"
             id="g3801">
            <path
               inkscape:connector-curvature="0"
               id="path3803"
               style="fill:#2e3442;fill-opacity:1;fill-rule:nonzero;stroke:none"
               d="m 0,0 c -0.635,0 -1.092,-0.176 -1.376,-0.527 -0.283,-0.352 -0.431,-0.911 -0.438,-1.679 v -0.21 c 0,-0.873 0.146,-1.498 0.438,-1.873 0.29,-0.377 0.757,-0.565 1.4,-0.565 0.537,0 0.956,0.219 1.261,0.652 0.303,0.434 0.457,1.034 0.457,1.798 0,0.775 -0.154,1.369 -0.457,1.783 C 0.98,-0.207 0.553,0 0,0 m 0.137,-5.641 c -0.405,0 -0.774,0.075 -1.109,0.224 -0.333,0.148 -0.614,0.379 -0.842,0.688 h -0.068 c 0.046,-0.363 0.068,-0.707 0.068,-1.031 v -2.556 h -0.941 v 9.002 h 0.767 l 0.129,-0.851 h 0.045 c 0.242,0.34 0.525,0.587 0.845,0.737 0.322,0.151 0.69,0.227 1.106,0.227 0.823,0 1.461,-0.281 1.909,-0.845 0.448,-0.563 0.671,-1.352 0.671,-2.37 0,-1.02 -0.228,-1.813 -0.684,-2.377 C 1.578,-5.359 0.945,-5.641 0.137,-5.641" />
          </g>
          <g
             transform="translate(275.3584,120.3096)"
             id="g3805">
            <path
               inkscape:connector-curvature="0"
               id="path3807"
               style="fill:#2e3442;fill-opacity:1;fill-rule:nonzero;stroke:none"
               d="M 0,0 C 0.275,0 0.523,-0.023 0.743,-0.068 L 0.612,-0.941 c -0.256,0.056 -0.485,0.086 -0.679,0.086 -0.504,0 -0.934,-0.206 -1.291,-0.613 -0.358,-0.407 -0.536,-0.917 -0.536,-1.526 v -3.332 h -0.94 v 6.213 h 0.776 l 0.108,-1.151 h 0.045 c 0.231,0.405 0.509,0.716 0.834,0.935 C -0.746,-0.109 -0.388,0 0,0" />
          </g>
          <path
             inkscape:connector-curvature="0"
             id="path3809"
             style="fill:#2e3442;fill-opacity:1;fill-rule:nonzero;stroke:none"
             d="m 278.344,113.983 h -0.941 v 6.213 h 0.941 z m -1.022,7.897 c 0,0.216 0.055,0.374 0.159,0.474 0.107,0.1 0.24,0.149 0.399,0.149 0.151,0 0.28,-0.049 0.39,-0.152 0.109,-0.102 0.164,-0.258 0.164,-0.471 0,-0.211 -0.055,-0.369 -0.164,-0.474 -0.11,-0.102 -0.239,-0.154 -0.39,-0.154 -0.159,0 -0.292,0.052 -0.399,0.154 -0.104,0.105 -0.159,0.263 -0.159,0.474" />
          <g
             transform="translate(284.4883,115.6777)"
             id="g3811">
            <path
               inkscape:connector-curvature="0"
               id="path3813"
               style="fill:#2e3442;fill-opacity:1;fill-rule:nonzero;stroke:none"
               d="m 0,0 c 0,-0.579 -0.216,-1.024 -0.647,-1.337 -0.431,-0.314 -1.035,-0.471 -1.815,-0.471 -0.825,0 -1.466,0.131 -1.927,0.39 v 0.873 c 0.298,-0.149 0.619,-0.268 0.96,-0.356 0.342,-0.086 0.672,-0.13 0.99,-0.13 0.491,0 0.87,0.077 1.134,0.235 0.264,0.156 0.396,0.397 0.396,0.717 0,0.242 -0.103,0.449 -0.314,0.62 -0.21,0.173 -0.619,0.376 -1.227,0.61 -0.579,0.215 -0.989,0.404 -1.233,0.565 -0.245,0.159 -0.425,0.343 -0.545,0.546 -0.119,0.204 -0.178,0.448 -0.178,0.731 0,0.508 0.206,0.906 0.617,1.2 0.412,0.292 0.977,0.439 1.696,0.439 0.669,0 1.322,-0.136 1.961,-0.408 L -0.466,3.458 c -0.623,0.257 -1.188,0.386 -1.696,0.386 -0.444,0 -0.781,-0.07 -1.009,-0.21 -0.225,-0.14 -0.34,-0.332 -0.34,-0.578 0,-0.166 0.044,-0.308 0.128,-0.425 0.085,-0.118 0.222,-0.23 0.412,-0.333 C -2.784,2.19 -2.42,2.038 -1.884,1.837 -1.147,1.569 -0.647,1.298 -0.39,1.026 -0.131,0.754 0,0.412 0,0" />
          </g>
          <g
             transform="translate(288.5273,119.5215)"
             id="g3815">
            <path
               inkscape:connector-curvature="0"
               id="path3817"
               style="fill:#2e3442;fill-opacity:1;fill-rule:nonzero;stroke:none"
               d="M 0,0 C -0.5,0 -0.897,-0.163 -1.194,-0.486 -1.49,-0.812 -1.664,-1.261 -1.72,-1.837 h 3.25 c 0,0.594 -0.132,1.047 -0.398,1.363 C 0.868,-0.157 0.491,0 0,0 m 0.256,-5.651 c -0.92,0 -1.644,0.279 -2.175,0.838 -0.532,0.56 -0.798,1.336 -0.798,2.331 0,1.002 0.247,1.795 0.739,2.385 0.494,0.59 1.158,0.885 1.989,0.885 0.778,0 1.395,-0.256 1.847,-0.767 0.454,-0.512 0.682,-1.189 0.682,-2.028 v -0.595 h -4.282 c 0.019,-0.729 0.203,-1.284 0.554,-1.661 0.348,-0.379 0.841,-0.567 1.476,-0.567 0.67,0 1.331,0.141 1.984,0.419 v -0.84 C 1.941,-5.394 1.625,-5.497 1.329,-5.558 1.032,-5.621 0.675,-5.651 0.256,-5.651" />
          </g>
          <g
             transform="translate(297.6611,114.6465)"
             id="g3819">
            <path
               inkscape:connector-curvature="0"
               id="path3821"
               style="fill:#2e3442;fill-opacity:1;fill-rule:nonzero;stroke:none"
               d="M 0,0 C 0.587,0 1.046,0.159 1.381,0.481 1.716,0.802 1.884,1.252 1.884,1.83 V 2.393 L 0.942,2.353 C 0.193,2.326 -0.346,2.21 -0.678,2.004 -1.007,1.798 -1.174,1.478 -1.174,1.042 c 0,-0.34 0.103,-0.6 0.309,-0.776 C -0.658,0.089 -0.37,0 0,0 M 2.127,-0.663 1.938,0.221 H 1.894 C 1.584,-0.169 1.274,-0.432 0.967,-0.57 0.659,-0.709 0.274,-0.776 -0.187,-0.776 c -0.617,0 -1.098,0.158 -1.448,0.474 -0.349,0.319 -0.525,0.771 -0.525,1.356 0,1.255 1.004,1.912 3.011,1.973 L 1.906,3.062 V 3.446 C 1.906,3.935 1.8,4.295 1.591,4.526 1.381,4.759 1.046,4.875 0.585,4.875 0.066,4.875 -0.52,4.718 -1.174,4.399 L -1.463,5.12 c 0.307,0.166 0.644,0.297 1.007,0.39 0.364,0.094 0.73,0.141 1.098,0.141 0.739,0 1.29,-0.164 1.646,-0.492 C 2.646,4.83 2.824,4.304 2.824,3.577 v -4.24 z" />
          </g>
          <g
             transform="translate(305.3184,119.5107)"
             id="g3823">
            <path
               inkscape:connector-curvature="0"
               id="path3825"
               style="fill:#2e3442;fill-opacity:1;fill-rule:nonzero;stroke:none"
               d="M 0,0 C -0.635,0 -1.094,-0.176 -1.377,-0.527 -1.66,-0.879 -1.808,-1.438 -1.813,-2.206 v -0.21 c 0,-0.873 0.144,-1.498 0.436,-1.873 0.291,-0.377 0.759,-0.565 1.399,-0.565 0.539,0 0.957,0.219 1.264,0.652 0.303,0.434 0.454,1.034 0.454,1.798 0,0.775 -0.151,1.369 -0.454,1.783 C 0.979,-0.207 0.552,0 0,0 m 0.136,-5.641 c -0.404,0 -0.774,0.075 -1.109,0.224 -0.334,0.148 -0.614,0.379 -0.84,0.688 h -0.068 c 0.045,-0.363 0.068,-0.707 0.068,-1.031 v -2.556 h -0.942 v 9.002 h 0.766 l 0.131,-0.851 h 0.045 c 0.241,0.34 0.523,0.587 0.843,0.737 0.323,0.151 0.69,0.227 1.106,0.227 0.825,0 1.461,-0.281 1.909,-0.845 0.447,-0.563 0.672,-1.352 0.672,-2.37 0,-1.02 -0.23,-1.813 -0.684,-2.377 C 1.577,-5.359 0.944,-5.641 0.136,-5.641" />
          </g>
          <g
             transform="translate(312.5732,119.5107)"
             id="g3827">
            <path
               inkscape:connector-curvature="0"
               id="path3829"
               style="fill:#2e3442;fill-opacity:1;fill-rule:nonzero;stroke:none"
               d="m 0,0 c -0.635,0 -1.094,-0.176 -1.378,-0.527 -0.283,-0.352 -0.428,-0.911 -0.436,-1.679 v -0.21 c 0,-0.873 0.146,-1.498 0.436,-1.873 0.29,-0.377 0.758,-0.565 1.402,-0.565 0.535,0 0.957,0.219 1.26,0.652 0.305,0.434 0.457,1.034 0.457,1.798 0,0.775 -0.152,1.369 -0.457,1.783 C 0.981,-0.207 0.553,0 0,0 m 0.137,-5.641 c -0.407,0 -0.774,0.075 -1.109,0.224 -0.335,0.148 -0.615,0.379 -0.842,0.688 h -0.068 c 0.045,-0.363 0.068,-0.707 0.068,-1.031 v -2.556 h -0.941 v 9.002 h 0.766 l 0.13,-0.851 h 0.045 c 0.242,0.34 0.524,0.587 0.845,0.737 0.322,0.151 0.691,0.227 1.106,0.227 0.823,0 1.46,-0.281 1.907,-0.845 0.448,-0.563 0.672,-1.352 0.672,-2.37 0,-1.02 -0.227,-1.813 -0.683,-2.377 C 1.577,-5.359 0.945,-5.641 0.137,-5.641" />
          </g>
          <path
             inkscape:connector-curvature="0"
             id="path3831"
             style="fill:#2e3442;fill-opacity:1;fill-rule:nonzero;stroke:none"
             d="m 318.014,113.983 h -0.941 v 8.821 h 0.941 z" />
          <path
             inkscape:connector-curvature="0"
             id="path3833"
             style="fill:#2e3442;fill-opacity:1;fill-rule:nonzero;stroke:none"
             d="m 321.091,113.983 h -0.941 v 6.213 h 0.941 z m -1.022,7.897 c 0,0.216 0.053,0.374 0.159,0.474 0.105,0.1 0.238,0.149 0.397,0.149 0.151,0 0.282,-0.049 0.392,-0.152 0.109,-0.102 0.164,-0.258 0.164,-0.471 0,-0.211 -0.055,-0.369 -0.164,-0.474 -0.11,-0.102 -0.241,-0.154 -0.392,-0.154 -0.159,0 -0.292,0.052 -0.397,0.154 -0.106,0.105 -0.159,0.263 -0.159,0.474" />
          <g
             transform="translate(325.708,113.8701)"
             id="g3835">
            <path
               inkscape:connector-curvature="0"
               id="path3837"
               style="fill:#2e3442;fill-opacity:1;fill-rule:nonzero;stroke:none"
               d="m 0,0 c -0.899,0 -1.595,0.275 -2.088,0.83 -0.493,0.554 -0.741,1.336 -0.741,2.35 0,1.039 0.251,1.843 0.751,2.41 0.502,0.566 1.215,0.849 2.141,0.849 C 0.36,6.439 0.66,6.406 0.958,6.344 1.257,6.279 1.491,6.204 1.662,6.117 L 1.372,5.318 C 1.165,5.4 0.938,5.469 0.692,5.523 0.446,5.579 0.229,5.606 0.04,5.606 c -1.262,0 -1.893,-0.805 -1.893,-2.415 0,-0.763 0.153,-1.349 0.461,-1.757 0.309,-0.409 0.765,-0.613 1.37,-0.613 0.518,0 1.049,0.112 1.592,0.335 V 0.322 C 1.155,0.106 0.632,0 0,0" />
          </g>
          <g
             transform="translate(330.5859,114.6465)"
             id="g3839">
            <path
               inkscape:connector-curvature="0"
               id="path3841"
               style="fill:#2e3442;fill-opacity:1;fill-rule:nonzero;stroke:none"
               d="M 0,0 C 0.587,0 1.047,0.159 1.383,0.481 1.716,0.802 1.884,1.252 1.884,1.83 V 2.393 L 0.942,2.353 C 0.193,2.326 -0.345,2.21 -0.677,2.004 -1.007,1.798 -1.173,1.478 -1.173,1.042 c 0,-0.34 0.104,-0.6 0.31,-0.776 C -0.657,0.089 -0.37,0 0,0 M 2.127,-0.663 1.939,0.221 H 1.895 C 1.585,-0.169 1.276,-0.432 0.967,-0.57 0.66,-0.709 0.274,-0.776 -0.187,-0.776 c -0.615,0 -1.098,0.158 -1.447,0.474 -0.35,0.319 -0.524,0.771 -0.524,1.356 0,1.255 1.002,1.912 3.009,1.973 l 1.055,0.035 v 0.384 c 0,0.489 -0.105,0.849 -0.314,1.08 -0.209,0.233 -0.545,0.349 -1.007,0.349 -0.518,0 -1.104,-0.157 -1.758,-0.476 l -0.29,0.721 c 0.307,0.166 0.643,0.297 1.009,0.39 0.364,0.094 0.728,0.141 1.096,0.141 0.741,0 1.29,-0.164 1.646,-0.492 C 2.646,4.83 2.824,4.304 2.824,3.577 v -4.24 z" />
          </g>
          <g
             transform="translate(337.4961,114.6465)"
             id="g3843">
            <path
               inkscape:connector-curvature="0"
               id="path3845"
               style="fill:#2e3442;fill-opacity:1;fill-rule:nonzero;stroke:none"
               d="m 0,0 c 0.166,0 0.326,0.011 0.481,0.037 0.155,0.025 0.279,0.05 0.37,0.075 V -0.607 C 0.749,-0.655 0.598,-0.698 0.4,-0.728 0.201,-0.761 0.023,-0.776 -0.138,-0.776 c -1.201,0 -1.8,0.632 -1.8,1.899 v 3.695 h -0.891 v 0.454 l 0.891,0.391 0.396,1.327 h 0.544 V 5.55 H 0.805 V 4.818 H -0.998 V 1.161 c 0,-0.373 0.089,-0.66 0.267,-0.861 C -0.553,0.101 -0.31,0 0,0" />
          </g>
          <path
             inkscape:connector-curvature="0"
             id="path3847"
             style="fill:#2e3442;fill-opacity:1;fill-rule:nonzero;stroke:none"
             d="m 340.668,113.983 h -0.941 v 6.213 h 0.941 z m -1.022,7.897 c 0,0.216 0.055,0.374 0.16,0.474 0.106,0.1 0.238,0.149 0.398,0.149 0.151,0 0.28,-0.049 0.39,-0.152 0.109,-0.102 0.164,-0.258 0.164,-0.471 0,-0.211 -0.055,-0.369 -0.164,-0.474 -0.11,-0.102 -0.239,-0.154 -0.39,-0.154 -0.16,0 -0.292,0.052 -0.398,0.154 -0.105,0.105 -0.16,0.263 -0.16,0.474" />
          <g
             transform="translate(343.4326,117.0947)"
             id="g3849">
            <path
               inkscape:connector-curvature="0"
               id="path3851"
               style="fill:#2e3442;fill-opacity:1;fill-rule:nonzero;stroke:none"
               d="m 0,0 c 0,-0.794 0.157,-1.398 0.477,-1.813 0.315,-0.416 0.783,-0.625 1.4,-0.625 0.616,0 1.084,0.208 1.402,0.622 0.32,0.414 0.479,1.019 0.479,1.816 0,0.79 -0.159,1.391 -0.479,1.8 C 2.961,2.211 2.489,2.416 1.865,2.416 1.25,2.416 0.784,2.214 0.47,1.81 0.157,1.405 0,0.801 0,0 m 4.733,0 c 0,-1.013 -0.254,-1.804 -0.763,-2.373 -0.513,-0.568 -1.217,-0.852 -2.116,-0.852 -0.556,0 -1.048,0.131 -1.481,0.39 -0.43,0.261 -0.763,0.636 -0.997,1.123 -0.233,0.488 -0.353,1.059 -0.353,1.712 0,1.014 0.255,1.803 0.761,2.367 0.506,0.566 1.21,0.848 2.111,0.848 0.868,0 1.559,-0.289 2.071,-0.867 C 4.479,1.77 4.733,0.986 4.733,0" />
          </g>
          <g
             transform="translate(354.209,113.9834)"
             id="g3853">
            <path
               inkscape:connector-curvature="0"
               id="path3855"
               style="fill:#2e3442;fill-opacity:1;fill-rule:nonzero;stroke:none"
               d="M 0,0 V 4.02 C 0,4.525 -0.116,4.903 -0.347,5.152 -0.577,5.402 -0.938,5.527 -1.43,5.527 -2.08,5.527 -2.556,5.352 -2.858,5 -3.16,4.648 -3.312,4.068 -3.312,3.26 V 0 h -0.94 v 6.213 h 0.764 l 0.154,-0.851 h 0.045 c 0.193,0.306 0.463,0.543 0.81,0.712 0.347,0.168 0.736,0.252 1.163,0.252 0.749,0 1.311,-0.18 1.689,-0.541 C 0.752,5.424 0.94,4.848 0.94,4.053 V 0 Z" />
          </g>
          <g
             transform="translate(361.2305,115.6777)"
             id="g3857">
            <path
               inkscape:connector-curvature="0"
               id="path3859"
               style="fill:#2e3442;fill-opacity:1;fill-rule:nonzero;stroke:none"
               d="m 0,0 c 0,-0.579 -0.216,-1.024 -0.647,-1.337 -0.43,-0.314 -1.035,-0.471 -1.814,-0.471 -0.825,0 -1.466,0.131 -1.927,0.39 v 0.873 c 0.298,-0.149 0.618,-0.268 0.96,-0.356 0.342,-0.086 0.672,-0.13 0.99,-0.13 0.491,0 0.87,0.077 1.133,0.235 0.265,0.156 0.397,0.397 0.397,0.717 0,0.242 -0.104,0.449 -0.315,0.62 -0.209,0.173 -0.618,0.376 -1.227,0.61 -0.578,0.215 -0.989,0.404 -1.233,0.565 -0.244,0.159 -0.424,0.343 -0.544,0.546 -0.119,0.204 -0.178,0.448 -0.178,0.731 0,0.508 0.206,0.906 0.616,1.2 0.413,0.292 0.978,0.439 1.697,0.439 0.668,0 1.322,-0.136 1.96,-0.408 L -0.465,3.458 c -0.624,0.257 -1.189,0.386 -1.696,0.386 -0.445,0 -0.782,-0.07 -1.009,-0.21 C -3.396,3.494 -3.51,3.302 -3.51,3.056 -3.51,2.89 -3.467,2.748 -3.383,2.631 -3.297,2.513 -3.16,2.401 -2.971,2.298 -2.783,2.19 -2.419,2.038 -1.883,1.837 -1.146,1.569 -0.647,1.298 -0.39,1.026 -0.13,0.754 0,0.412 0,0" />
          </g>
          <g
             transform="translate(100.7041,171.2021)"
             id="g3861">
            <path
               inkscape:connector-curvature="0"
               id="path3863"
               style="fill:#f36370;fill-opacity:1;fill-rule:nonzero;stroke:none"
               d="M 0,0 C 7.081,0 13.74,-2.759 18.749,-7.766 29.083,-18.102 29.083,-34.922 18.748,-45.26 l 1.691,-1.692 c 11.269,11.274 11.271,29.609 0.002,40.876 -5.462,5.462 -12.72,8.47 -20.441,8.47 -7.719,0 -14.979,-3.008 -20.438,-8.468 l 1.691,-1.692 C -13.74,-2.759 -7.082,0 0,0" />
          </g>
          <g
             transform="translate(121.1421,124.25)"
             id="g3865">
            <path
               inkscape:connector-curvature="0"
               id="path3867"
               style="fill:#2e3442;fill-opacity:1;fill-rule:nonzero;stroke:none"
               d="m 0,0 c -5.461,-5.46 -12.719,-8.466 -20.44,-8.466 -7.72,0 -14.978,3.006 -20.436,8.464 -5.461,5.46 -8.468,12.721 -8.468,20.442 0,7.721 3.006,14.978 8.467,20.436 l 0.001,0.002 -3.56,3.56 c -13.255,-13.255 -13.255,-34.742 0,-47.996 13.252,-13.254 34.743,-13.256 47.998,0 L 0.001,0 Z" />
          </g>
          <g
             transform="translate(81.9556,163.4365)"
             id="g3869">
            <path
               inkscape:connector-curvature="0"
               id="path3871"
               style="fill:#4a84b5;fill-opacity:1;fill-rule:nonzero;stroke:none"
               d="m 0,0 c -5.008,-5.007 -7.765,-11.666 -7.765,-18.746 0,-7.084 2.759,-13.745 7.766,-18.75 5.006,-5.008 11.664,-7.768 18.745,-7.768 7.083,0 13.74,2.762 18.749,7.768 l 0.002,0.002 L 0.001,0 Z" />
          </g>
        </g>
      </g>
    </g>
  </g>
</svg>
